<mxfile host="Electron" modified="2024-05-31T03:57:22.328Z" agent="Mozilla/5.0 (Windows NT 10.0; Win64; x64) AppleWebKit/537.36 (KHTML, like Gecko) draw.io/22.1.2 Chrome/114.0.5735.289 Electron/25.9.4 Safari/537.36" etag="klM6jqo6K6UE99OJqxxZ" version="22.1.2" type="device">
  <diagram name="Страница — 1" id="3C-6L2zY9aqD0EVe9Dkc">
    <mxGraphModel dx="2442" dy="968" grid="1" gridSize="10" guides="1" tooltips="1" connect="1" arrows="1" fold="1" page="1" pageScale="1" pageWidth="827" pageHeight="1169" math="0" shadow="0">
      <root>
        <mxCell id="0" />
        <mxCell id="1" parent="0" />
        <mxCell id="Tihq_zpHT0S9q9uXu4la-1" value="Автосервис" style="rounded=0;whiteSpace=wrap;html=1;" vertex="1" parent="1">
          <mxGeometry x="150" y="210" width="460" height="220" as="geometry" />
        </mxCell>
        <mxCell id="Tihq_zpHT0S9q9uXu4la-2" value="" style="endArrow=classic;html=1;rounded=0;entryX=0;entryY=0.285;entryDx=0;entryDy=0;entryPerimeter=0;" edge="1" parent="1" target="Tihq_zpHT0S9q9uXu4la-1">
          <mxGeometry width="50" height="50" relative="1" as="geometry">
            <mxPoint x="10" y="273" as="sourcePoint" />
            <mxPoint x="440" y="300" as="targetPoint" />
          </mxGeometry>
        </mxCell>
        <mxCell id="Tihq_zpHT0S9q9uXu4la-3" value="Заказы клиентов" style="text;html=1;strokeColor=none;fillColor=none;align=center;verticalAlign=middle;whiteSpace=wrap;rounded=0;" vertex="1" parent="1">
          <mxGeometry x="10" y="240" width="120" height="30" as="geometry" />
        </mxCell>
        <mxCell id="Tihq_zpHT0S9q9uXu4la-4" value="Денежные средства" style="text;html=1;strokeColor=none;fillColor=none;align=center;verticalAlign=middle;whiteSpace=wrap;rounded=0;" vertex="1" parent="1">
          <mxGeometry x="-10" y="340" width="160" height="30" as="geometry" />
        </mxCell>
        <mxCell id="Tihq_zpHT0S9q9uXu4la-5" value="Законодательство" style="text;html=1;strokeColor=none;fillColor=none;align=center;verticalAlign=middle;whiteSpace=wrap;rounded=0;" vertex="1" parent="1">
          <mxGeometry x="235" y="60" width="60" height="30" as="geometry" />
        </mxCell>
        <mxCell id="Tihq_zpHT0S9q9uXu4la-6" value="Правили и процедуры" style="text;html=1;strokeColor=none;fillColor=none;align=center;verticalAlign=middle;whiteSpace=wrap;rounded=0;" vertex="1" parent="1">
          <mxGeometry x="350" y="57" width="60" height="30" as="geometry" />
        </mxCell>
        <mxCell id="Tihq_zpHT0S9q9uXu4la-7" value="Стандарты обслуживания клиентов" style="text;html=1;strokeColor=none;fillColor=none;align=center;verticalAlign=middle;whiteSpace=wrap;rounded=0;" vertex="1" parent="1">
          <mxGeometry x="428" y="57" width="140" height="30" as="geometry" />
        </mxCell>
        <mxCell id="Tihq_zpHT0S9q9uXu4la-8" value="Оказаная услуга" style="text;html=1;strokeColor=none;fillColor=none;align=center;verticalAlign=middle;whiteSpace=wrap;rounded=0;" vertex="1" parent="1">
          <mxGeometry x="640" y="240" width="110" height="30" as="geometry" />
        </mxCell>
        <mxCell id="Tihq_zpHT0S9q9uXu4la-9" value="Персонал" style="text;html=1;strokeColor=none;fillColor=none;align=center;verticalAlign=middle;whiteSpace=wrap;rounded=0;" vertex="1" parent="1">
          <mxGeometry x="290" y="547" width="60" height="30" as="geometry" />
        </mxCell>
        <mxCell id="Tihq_zpHT0S9q9uXu4la-10" value="База данных" style="text;html=1;strokeColor=none;fillColor=none;align=center;verticalAlign=middle;whiteSpace=wrap;rounded=0;" vertex="1" parent="1">
          <mxGeometry x="390" y="547" width="100" height="30" as="geometry" />
        </mxCell>
        <mxCell id="Tihq_zpHT0S9q9uXu4la-11" value="Прибыль" style="text;html=1;strokeColor=none;fillColor=none;align=center;verticalAlign=middle;whiteSpace=wrap;rounded=0;" vertex="1" parent="1">
          <mxGeometry x="680" y="340" width="60" height="30" as="geometry" />
        </mxCell>
        <mxCell id="Tihq_zpHT0S9q9uXu4la-12" value="" style="endArrow=classic;html=1;rounded=0;entryX=0;entryY=0.75;entryDx=0;entryDy=0;" edge="1" parent="1" target="Tihq_zpHT0S9q9uXu4la-1">
          <mxGeometry width="50" height="50" relative="1" as="geometry">
            <mxPoint x="10" y="375" as="sourcePoint" />
            <mxPoint x="150" y="350" as="targetPoint" />
          </mxGeometry>
        </mxCell>
        <mxCell id="Tihq_zpHT0S9q9uXu4la-13" value="" style="endArrow=classic;html=1;rounded=0;entryX=0;entryY=0.285;entryDx=0;entryDy=0;entryPerimeter=0;" edge="1" parent="1">
          <mxGeometry width="50" height="50" relative="1" as="geometry">
            <mxPoint x="610" y="273" as="sourcePoint" />
            <mxPoint x="750" y="273" as="targetPoint" />
          </mxGeometry>
        </mxCell>
        <mxCell id="Tihq_zpHT0S9q9uXu4la-14" value="" style="endArrow=classic;html=1;rounded=0;entryX=0;entryY=0.75;entryDx=0;entryDy=0;" edge="1" parent="1">
          <mxGeometry width="50" height="50" relative="1" as="geometry">
            <mxPoint x="610" y="375" as="sourcePoint" />
            <mxPoint x="750" y="375" as="targetPoint" />
          </mxGeometry>
        </mxCell>
        <mxCell id="Tihq_zpHT0S9q9uXu4la-15" value="" style="endArrow=classic;html=1;rounded=0;entryX=0.25;entryY=0;entryDx=0;entryDy=0;" edge="1" parent="1" target="Tihq_zpHT0S9q9uXu4la-1">
          <mxGeometry width="50" height="50" relative="1" as="geometry">
            <mxPoint x="265" y="90" as="sourcePoint" />
            <mxPoint x="330" y="310" as="targetPoint" />
          </mxGeometry>
        </mxCell>
        <mxCell id="Tihq_zpHT0S9q9uXu4la-16" value="" style="endArrow=classic;html=1;rounded=0;entryX=0.25;entryY=0;entryDx=0;entryDy=0;" edge="1" parent="1">
          <mxGeometry width="50" height="50" relative="1" as="geometry">
            <mxPoint x="380" y="91" as="sourcePoint" />
            <mxPoint x="380" y="211" as="targetPoint" />
          </mxGeometry>
        </mxCell>
        <mxCell id="Tihq_zpHT0S9q9uXu4la-17" value="" style="endArrow=classic;html=1;rounded=0;entryX=0.25;entryY=0;entryDx=0;entryDy=0;" edge="1" parent="1">
          <mxGeometry width="50" height="50" relative="1" as="geometry">
            <mxPoint x="494" y="91" as="sourcePoint" />
            <mxPoint x="494" y="211" as="targetPoint" />
          </mxGeometry>
        </mxCell>
        <mxCell id="Tihq_zpHT0S9q9uXu4la-18" value="" style="endArrow=classic;html=1;rounded=0;entryX=0.25;entryY=0;entryDx=0;entryDy=0;" edge="1" parent="1">
          <mxGeometry width="50" height="50" relative="1" as="geometry">
            <mxPoint x="439" y="550" as="sourcePoint" />
            <mxPoint x="439" y="430" as="targetPoint" />
          </mxGeometry>
        </mxCell>
        <mxCell id="Tihq_zpHT0S9q9uXu4la-19" value="" style="endArrow=classic;html=1;rounded=0;entryX=0.25;entryY=0;entryDx=0;entryDy=0;" edge="1" parent="1">
          <mxGeometry width="50" height="50" relative="1" as="geometry">
            <mxPoint x="322" y="550" as="sourcePoint" />
            <mxPoint x="322" y="430" as="targetPoint" />
          </mxGeometry>
        </mxCell>
      </root>
    </mxGraphModel>
  </diagram>
</mxfile>
